<?xml version="1.0" standalone="no"?>
<!DOCTYPE svg PUBLIC "-//W3C//DTD SVG 20010904//EN"
 "http://www.w3.org/TR/2001/REC-SVG-20010904/DTD/svg10.dtd">
<svg version="1.0" xmlns="http://www.w3.org/2000/svg"
 width="512.000000pt" height="512.000000pt" viewBox="0 0 512.000000 512.000000"
 preserveAspectRatio="xMidYMid meet">

<g transform="translate(0.000000,512.000000) scale(0.100000,-0.100000)"
fill="white" stroke="none">
<path d="M2521 5108 c-14 -7 -332 -436 -718 -967 -751 -1034 -726 -994 -667
-1040 26 -21 37 -21 470 -21 l444 0 0 -486 c0 -297 4 -492 10 -504 20 -37 60
-40 500 -40 440 0 480 3 500 40 6 12 10 207 10 504 l0 486 444 0 c433 0 444 0
470 21 59 46 84 7 -660 1030 -377 519 -693 952 -702 961 -23 24 -72 31 -101
16z m635 -1029 c324 -447 591 -816 592 -820 2 -5 -174 -9 -392 -9 l-395 0 -28
-24 -28 -24 -3 -491 -3 -491 -339 0 -339 0 -3 491 -3 491 -28 24 -28 24 -395
0 c-218 0 -394 4 -392 9 7 19 1182 1631 1188 1631 4 0 272 -365 596 -811z"/>
<path d="M2230 1871 c-112 -35 -180 -128 -180 -246 0 -105 52 -187 145 -231
49 -23 55 -24 365 -24 310 0 316 1 365 24 93 44 145 126 145 231 0 99 -49 182
-135 228 -38 21 -53 22 -360 24 -176 1 -331 -2 -345 -6z m645 -186 c17 -16 25
-35 25 -60 0 -25 -8 -44 -25 -60 l-24 -25 -291 0 -291 0 -24 25 c-17 16 -25
35 -25 60 0 25 8 44 25 60 l24 25 291 0 291 0 24 -25z"/>
<path d="M2240 1187 c-134 -37 -204 -145 -187 -287 10 -86 63 -155 147 -194
43 -20 62 -21 360 -21 298 0 317 1 360 21 90 42 140 112 147 209 10 117 -37
204 -135 252 l-57 28 -295 2 c-213 2 -308 -1 -340 -10z m634 -186 c33 -31 35
-85 4 -118 l-21 -23 -296 0 c-289 0 -295 0 -318 22 -46 43 -21 125 42 141 11
3 142 5 292 4 l271 -2 26 -24z"/>
<path d="M2195 486 c-93 -44 -144 -126 -145 -232 0 -109 67 -204 169 -239 65
-22 617 -22 682 0 102 35 169 130 169 239 -1 106 -52 188 -145 232 -49 23 -55
24 -365 24 -310 0 -316 -1 -365 -24z m680 -171 c41 -40 33 -105 -16 -130 -41
-22 -557 -22 -598 0 -49 25 -57 90 -16 130 l24 25 291 0 291 0 24 -25z"/>
</g>
</svg>
